PathFileType	4	(X/Y/Z)	s05c0401.trc
DataRate	CameraRate	NumFrames	NumMarkers	Units	OrigDataRate	OrigDataStartFrame	OrigNumFrames
200	200	4	50	mm	200	1250	2000
Frame#	Time	racr			lacr			c7			jug			rlel			rdr			llel			ldr			s2			lic			ric			lasi			rasi			rpsi			lpsi			rgt			lgt			rth1			rth2			rth3			rth4			rlfc			rmfc			rsh1			rsh2			rsh3			rsh4			rlmal			rmmal			rcal			rtoe			rmt5			lth1			lth2			lth4			lth3			llfc			lmfc			lsh1			lsh2			lsh3			lsh4			llmal			lmmal			lcal			ltoe			lmt5			SBIKE			LBIKE			RBIKE			
		X1	Y1	Z1	X2	Y2	Z2	X3	Y3	Z3	X4	Y4	Z4	X5	Y5	Z5	X6	Y6	Z6	X7	Y7	Z7	X8	Y8	Z8	X9	Y9	Z9	X10	Y10	Z10	X11	Y11	Z11	X12	Y12	Z12	X13	Y13	Z13	X14	Y14	Z14	X15	Y15	Z15	X16	Y16	Z16	X17	Y17	Z17	X18	Y18	Z18	X19	Y19	Z19	X20	Y20	Z20	X21	Y21	Z21	X22	Y22	Z22	X23	Y23	Z23	X24	Y24	Z24	X25	Y25	Z25	X26	Y26	Z26	X27	Y27	Z27	X28	Y28	Z28	X29	Y29	Z29	X30	Y30	Z30	X31	Y31	Z31	X32	Y32	Z32	X33	Y33	Z33	X34	Y34	Z34	X35	Y35	Z35	X36	Y36	Z36	X37	Y37	Z37	X38	Y38	Z38	X39	Y39	Z39	X40	Y40	Z40	X41	Y41	Z41	X42	Y42	Z42	X43	Y43	Z43	X44	Y44	Z44	X45	Y45	Z45	X46	Y46	Z46	X47	Y47	Z47	X48	Y48	Z48	X49	Y49	Z49	X50	Y50	Z50	
1250	6.2500	806.012898	1281.170360	-136.851856	762.318747	1344.830950	-433.832553	773.096547	1403.204591	-283.832990	730.110185	1241.091023	-300.590257	607.379129	1148.175501	55.863040	683.329604	967.100702	-60.528504	565.313795	1172.610146	-592.858257	677.681329	955.584663	-525.116411	187.354624	1239.980809	-305.757006	350.609293	1233.820228	-426.341702	319.420039	1227.026021	-148.124474	376.102783	1166.086354	-392.654469	350.184744	1161.742791	-173.718660	226.574773	1278.402831	-256.604512	239.450261	1282.498027	-343.539409	241.773753	1102.903642	-133.944948	272.583381	1136.946726	-471.323456	302.376448	996.701504	-114.854320	359.189575	928.893868	-108.671101	373.406760	842.078484	-115.045513	392.745280	944.461666	-115.020441	443.010319	709.558629	-131.949693	433.171793	704.475950	-240.669100	373.336883	623.911578	-104.047889	360.002383	536.431413	-113.590391	309.343276	467.813314	-114.584530	388.421563	526.929564	-138.107579	260.412307	341.570225	-123.019789	281.640768	360.928305	-202.360992	185.289784	329.083321	-167.398743	460.366183	217.848266	-156.650568	356.273610	229.314218	-93.217858	351.840117	1014.882465	-478.330768	418.107408	961.690881	-467.404092	444.478719	980.028451	-447.640971	449.768476	876.400136	-466.876206	496.916239	739.200207	-432.677367	466.522693	734.990948	-327.291445	382.752573	687.281652	-466.153315	316.293630	632.471949	-454.692349	229.692432	614.725386	-461.227663	329.578916	606.829256	-428.707929	125.280246	559.521374	-461.225299	154.360282	558.989144	-380.600918	66.044671	600.738904	-422.648786	152.801443	320.558110	-390.664422	92.171476	403.489463	-465.866795	-219.282249	912.813140	-273.469916	-53.371887	79.578257	-474.872039	-53.393534	79.173985	-77.230675	
1251	6.2550	806.020758	1283.220584	-138.335411	761.354532	1345.826341	-435.665209	772.373714	1404.177538	-285.396495	730.035568	1242.172717	-301.837754	608.455803	1149.407530	55.226019	683.725432	966.973892	-59.916761	564.422203	1172.161232	-593.458386	678.339169	955.503529	-526.119718	187.440715	1237.826819	-305.156750	350.143196	1233.975170	-425.723925	319.940866	1223.623308	-147.559294	376.145404	1166.066628	-392.541407	350.778145	1159.090226	-173.558049	226.745214	1275.577695	-255.111773	239.182804	1280.975706	-342.476648	241.133530	1099.174788	-134.865188	273.859279	1137.411699	-471.541108	299.648371	992.219117	-115.466489	354.924522	922.719759	-110.276050	367.242176	835.541516	-116.472396	389.068960	937.810113	-116.265556	434.799395	702.204203	-133.823991	423.795784	697.095348	-242.175782	365.621891	616.253079	-104.989423	353.274269	528.909984	-114.691942	303.241869	459.718783	-115.267948	381.576003	519.433884	-139.452763	255.172484	333.257751	-123.265687	276.262959	352.134415	-202.708672	180.178492	321.149192	-167.533989	454.314071	207.527753	-156.676813	350.331072	220.059596	-93.391323	355.506227	1017.019700	-479.459281	423.042391	965.424387	-468.174046	448.685761	984.272360	-447.873087	456.886868	881.035777	-468.233457	506.482419	744.694141	-433.646399	476.091675	740.533284	-328.404179	393.068478	693.270764	-467.291008	325.712916	639.154576	-455.728097	239.154237	622.377187	-463.007677	338.479207	613.581553	-429.657041	133.433885	567.790693	-462.318843	162.227599	567.312609	-381.956605	74.540519	609.723315	-423.672581	158.780987	328.918461	-390.590109	99.004797	412.183896	-466.012595	-219.193385	912.839641	-273.369718	-53.331245	79.589353	-474.875561	-53.355544	79.193532	-77.250500	
1252	6.2600	805.339495	1285.718563	-139.422118	760.585974	1346.889935	-438.859586	771.585663	1405.242113	-287.271209	729.852740	1243.099805	-303.120309	609.308280	1151.323689	55.604671	684.033223	967.078316	-59.550329	563.686316	1171.507523	-594.412510	678.839330	955.566817	-527.022898	186.785374	1236.005235	-303.563869	349.439182	1234.228082	-424.961521	321.136832	1220.581249	-146.404163	376.109940	1166.203476	-392.362211	351.465568	1156.247214	-173.299714	226.999052	1272.701669	-253.568321	238.483546	1279.844961	-340.820712	240.681988	1095.401011	-135.696285	274.898451	1138.075843	-471.663422	297.425060	987.752512	-116.621358	350.893577	916.956275	-111.183267	361.069293	829.522554	-117.829722	384.909830	930.922653	-117.808714	426.445128	695.093324	-135.503601	414.284485	689.874683	-243.536583	357.818518	608.927547	-106.132755	346.047154	521.496916	-115.682446	296.399617	451.816945	-116.295627	374.297470	512.239469	-140.575108	249.317580	325.311317	-123.515486	270.185728	343.876836	-202.984763	174.360708	313.768235	-167.616326	447.634855	197.622446	-156.724170	343.932937	211.457973	-92.964771	358.896780	1019.401541	-480.391310	427.590007	969.590420	-469.100071	452.768259	988.992046	-448.129300	463.792481	886.219067	-469.418715	516.198085	750.786926	-434.850670	486.719015	746.607677	-328.960405	403.051327	699.354527	-468.048024	335.332921	646.024512	-456.516525	248.369969	629.591309	-464.088012	348.020708	620.303283	-430.238206	142.064667	575.792379	-462.781937	171.027493	575.348270	-382.173493	83.377501	618.322616	-424.317534	165.366474	337.004393	-390.414452	106.353662	420.609806	-466.131149	-219.143098	912.851375	-273.348631	-53.305430	79.608007	-474.887931	-53.331443	79.173124	-77.248609	
1253	6.2650	804.932428	1287.876359	-140.962931	759.881207	1347.508732	-440.792008	770.751798	1406.270481	-289.330623	729.594646	1244.107397	-304.298823	610.419247	1152.796501	54.555912	684.317075	967.417053	-59.397215	563.126774	1170.738671	-595.537722	679.177987	955.703508	-527.654966	186.935865	1234.071757	-302.483158	348.568701	1234.535225	-424.137137	322.466333	1217.721574	-145.446482	375.995857	1166.448114	-392.093710	352.221210	1153.519956	-173.108232	227.301426	1270.140811	-252.383430	237.547795	1278.629833	-338.621882	240.545802	1091.658047	-136.572762	275.761173	1138.799700	-471.595617	295.175690	983.445813	-117.404729	346.749198	911.212813	-112.382943	354.707248	823.671186	-119.058768	381.130712	924.479650	-118.603076	417.529476	688.061478	-137.173777	404.687657	682.990427	-244.715246	349.572319	601.876520	-107.045424	338.289880	514.334964	-116.497865	289.065111	444.324676	-117.026392	366.541636	505.351405	-141.485485	242.938031	317.780194	-123.745740	263.640002	335.920479	-203.262288	167.956355	306.634576	-167.682628	440.469246	188.285856	-156.771011	336.883157	203.321791	-92.869074	362.049141	1022.199048	-481.351735	431.938359	974.157604	-469.795681	456.506517	994.103323	-448.584812	470.376009	891.785740	-470.478283	525.756896	757.410352	-436.223457	495.925578	752.650727	-330.446699	413.209506	705.655691	-468.597183	345.038552	652.860701	-457.016878	258.129845	636.929500	-465.209296	357.454333	627.152035	-430.645161	150.923603	583.600029	-462.739611	179.469774	582.953467	-382.165830	92.375460	626.507932	-424.316500	172.458418	344.676723	-390.533705	114.209468	428.637521	-466.130689	-219.137864	912.855638	-273.374222	-53.300982	79.622531	-474.904901	-53.351327	79.190575	-77.244019	
